<?xml version="1.0" encoding="UTF-8" standalone="no"?>
<svg
   xmlns:dc="http://purl.org/dc/elements/1.1/"
   xmlns:cc="http://creativecommons.org/ns#"
   xmlns:rdf="http://www.w3.org/1999/02/22-rdf-syntax-ns#"
   xmlns:svg="http://www.w3.org/2000/svg"
   xmlns="http://www.w3.org/2000/svg"
   xmlns:sodipodi="http://sodipodi.sourceforge.net/DTD/sodipodi-0.dtd"
   xmlns:inkscape="http://www.inkscape.org/namespaces/inkscape"
   version="1.1"
   x="0px"
   y="0px"
   viewBox="0 0 64 46.000031"
   id="svg18"
   sodipodi:docname="email-trimmed.svg"
   width="64"
   height="46.000031"
   inkscape:version="1.0 (4035a4f, 2020-05-01)">
  <metadata
     id="metadata24">
    <rdf:RDF>
      <cc:Work
         rdf:about="">
        <dc:format>image/svg+xml</dc:format>
        <dc:type
           rdf:resource="http://purl.org/dc/dcmitype/StillImage" />
        <dc:title></dc:title>
      </cc:Work>
    </rdf:RDF>
  </metadata>
  <defs
     id="defs22" />
  <sodipodi:namedview
     inkscape:document-rotation="0"
     pagecolor="#ffffff"
     bordercolor="#666666"
     borderopacity="1"
     objecttolerance="10"
     gridtolerance="10"
     guidetolerance="10"
     inkscape:pageopacity="0"
     inkscape:pageshadow="2"
     inkscape:window-width="1410"
     inkscape:window-height="1008"
     id="namedview20"
     showgrid="false"
     inkscape:zoom="7.704"
     inkscape:cx="40.339051"
     inkscape:cy="16.672574"
     inkscape:window-x="283"
     inkscape:window-y="23"
     inkscape:window-maximized="0"
     inkscape:current-layer="svg18" />
  <g
     transform="translate(-32,-979.36217)"
     id="g12">
    <path
       sodipodi:nodetypes="sssssssssssssssssscccccccccccccccccc"
       style="color:#000000;text-indent:0;text-transform:none;direction:ltr;baseline-shift:baseline;enable-background:accumulate"
       d="m 37,979.36217 c -2.7354,0 -5,2.26458 -5,5 v 36.00003 c 0,2.7354 2.2646,5 5,5 h 54 c 2.7355,0 5,-2.2646 5,-5 v -36.00003 c 0,-2.73542 -2.2645,-5 -5,-5 z m 0,4 h 54 c 0.5887,0 1,0.4114 1,1 v 36.00003 c 0,0.5886 -0.4113,1 -1,1 H 37 c -0.5886,0 -1,-0.4114 -1,-1 v -36.00003 c 0,-0.5886 0.4114,-1 1,-1 z m 7.7813,5.96875 c -1.703556,0.16579 -2.42547,2.25554 -1.1875,3.4375 l 10.0625,9.99998 -10,9.0938 c -2.006482,1.7903 0.707057,4.7877 2.6875,2.9687 l 10.1562,-9.25 3.0313,3 c 2.4516,2.4324 6.4537,2.4267 8.9063,0 l 3.0312,-3 10.1875,9.25 c 1.980443,1.819 4.693982,-1.1784 2.6875,-2.9687 l -10.0312,-9.125 10.0937,-9.96878 c 1.970736,-1.87422 -0.916622,-4.79366 -2.8125,-2.84375 l -16,15.81253 c -0.7377,0.7297 -2.5165,0.728 -3.25,0 L 46.4063,989.92467 c -0.42363,-0.43405 -1.021328,-0.65244 -1.625,-0.59375 z"
       fill="#000000"
       fill-opacity="1"
       fill-rule="nonzero"
       stroke="none"
       marker="none"
       visibility="visible"
       display="inline"
       overflow="visible"
       id="path10" />
  </g>
</svg>
