<?xml version="1.0" encoding="UTF-8" standalone="no"?>
<svg
   xmlns:dc="http://purl.org/dc/elements/1.1/"
   xmlns:cc="http://creativecommons.org/ns#"
   xmlns:rdf="http://www.w3.org/1999/02/22-rdf-syntax-ns#"
   xmlns:svg="http://www.w3.org/2000/svg"
   xmlns="http://www.w3.org/2000/svg"
   xmlns:sodipodi="http://sodipodi.sourceforge.net/DTD/sodipodi-0.dtd"
   xmlns:inkscape="http://www.inkscape.org/namespaces/inkscape"
   inkscape:version="1.0 (4035a4f, 2020-05-01)"
   height="46.000031"
   width="92"
   sodipodi:docname="email.svg"
   id="svg18"
   viewBox="0 0 92 46.000031"
   y="0px"
   x="0px"
   version="1.1">
  <metadata
     id="metadata24">
    <rdf:RDF>
      <cc:Work
         rdf:about="">
        <dc:format>image/svg+xml</dc:format>
        <dc:type
           rdf:resource="http://purl.org/dc/dcmitype/StillImage" />
      </cc:Work>
    </rdf:RDF>
  </metadata>
  <defs
     id="defs22" />
  <sodipodi:namedview
     inkscape:current-layer="svg18"
     inkscape:window-maximized="0"
     inkscape:window-y="23"
     inkscape:window-x="105"
     inkscape:cy="43.541733"
     inkscape:cx="68.339051"
     inkscape:zoom="7.704"
     showgrid="false"
     id="namedview20"
     inkscape:window-height="1008"
     inkscape:window-width="1410"
     inkscape:pageshadow="2"
     inkscape:pageopacity="0"
     guidetolerance="10"
     gridtolerance="10"
     objecttolerance="10"
     borderopacity="1"
     bordercolor="#666666"
     pagecolor="#ffffff" />
  <g
     id="g12"
     transform="translate(-4,-979.36217)">
    <path
       id="path10"
       overflow="visible"
       display="inline"
       visibility="visible"
       marker="none"
       stroke="none"
       fill-rule="nonzero"
       fill-opacity="1"
       fill="#000000"
       d="m 37,979.36217 c -2.7354,0 -5,2.26458 -5,5 v 36.00003 c 0,2.7354 2.2646,5 5,5 h 54 c 2.7355,0 5,-2.2646 5,-5 v -36.00003 c 0,-2.73542 -2.2645,-5 -5,-5 z m 0,4 h 54 c 0.5887,0 1,0.4114 1,1 v 36.00003 c 0,0.5886 -0.4113,1 -1,1 H 37 c -0.5886,0 -1,-0.4114 -1,-1 v -36.00003 c 0,-0.5886 0.4114,-1 1,-1 z m -31,5 c -1.1046,0 -2,0.8954 -2,2 0,1.1046 0.8954,2 2,2 h 20 c 1.1047,0 2,-0.8954 2,-2 0,-1.1046 -0.8953,-2 -2,-2 z m 38.7813,0.96875 a 2.0002,2.0002 0 0 0 -1.1875,3.4375 l 10.0625,9.99998 -10,9.0938 a 2.0022906,2.0022906 0 1 0 2.6875,2.9687 l 10.1562,-9.25 3.0313,3 c 2.4516,2.4324 6.4537,2.4267 8.9063,0 l 3.0312,-3 10.1875,9.25 a 2.0022906,2.0022906 0 1 0 2.6875,-2.9687 l -10.0312,-9.125 10.0937,-9.96878 a 2.0002,2.0002 0 1 0 -2.8125,-2.84375 l -16,15.81253 c -0.7377,0.7297 -2.5165,0.728 -3.25,0 L 46.4063,989.92467 a 2.0002,2.0002 0 0 0 -1.625,-0.59375 z M 10,1000.3622 c -1.1046,0 -2,0.8954 -2,2 0,1.1046 0.8954,2 2,2 h 16 c 1.1047,0 2,-0.8954 2,-2 0,-1.1046 -0.8953,-2 -2,-2 z m 4,12 c -1.1046,0 -2,0.8954 -2,2 0,1.1046 0.8954,2 2,2 h 12 c 1.1047,0 2,-0.8954 2,-2 0,-1.1046 -0.8953,-2 -2,-2 z"
       style="color:#000000;text-indent:0;text-transform:none;direction:ltr;baseline-shift:baseline;enable-background:accumulate" />
  </g>
</svg>
