<?xml version="1.0" encoding="UTF-8" standalone="no"?>
<svg
   xmlns:dc="http://purl.org/dc/elements/1.1/"
   xmlns:cc="http://creativecommons.org/ns#"
   xmlns:rdf="http://www.w3.org/1999/02/22-rdf-syntax-ns#"
   xmlns:svg="http://www.w3.org/2000/svg"
   xmlns="http://www.w3.org/2000/svg"
   xmlns:sodipodi="http://sodipodi.sourceforge.net/DTD/sodipodi-0.dtd"
   xmlns:inkscape="http://www.inkscape.org/namespaces/inkscape"
   inkscape:version="1.0 (4035a4f, 2020-05-01)"
   height="30"
   width="30"
   sodipodi:docname="website.svg"
   id="svg841"
   xml:space="preserve"
   viewBox="0 0 30 30"
   y="0px"
   x="0px"
   version="1.1"><metadata
     id="metadata847"><rdf:RDF><cc:Work
         rdf:about=""><dc:format>image/svg+xml</dc:format><dc:type
           rdf:resource="http://purl.org/dc/dcmitype/StillImage" /></cc:Work></rdf:RDF></metadata><defs
     id="defs845" /><sodipodi:namedview
     inkscape:current-layer="svg841"
     inkscape:window-maximized="0"
     inkscape:window-y="23"
     inkscape:window-x="0"
     inkscape:cy="27.678263"
     inkscape:cx="15"
     inkscape:zoom="9.1250627"
     showgrid="false"
     id="namedview843"
     inkscape:window-height="980"
     inkscape:window-width="1630"
     inkscape:pageshadow="2"
     inkscape:pageopacity="0"
     guidetolerance="10"
     gridtolerance="10"
     objecttolerance="10"
     borderopacity="1"
     bordercolor="#666666"
     pagecolor="#ffffff" /><path
     id="path833"
     d="m 20.5,26.8 c -0.2,0.1 -0.5,0.2 -0.7,0.3 0.2,-0.3 0.4,-0.5 0.5,-0.8 l -1,-2.4 c -0.9,2 -2.1,3.4 -3.3,3.9 V 23 c 1,0 2.1,0.1 3.1,0.3 L 18.2,21.2 C 17.5,21.1 16.8,21.1 16,21 v -5 h 5 c 0,0.7 -0.1,1.4 -0.2,2 l 1.9,0.8 c 0.1,-0.9 0.2,-1.9 0.2,-2.8 h 5 c -0.1,1.6 -0.5,3.1 -1.2,4.5 l 1.8,0.8 c 0.9,-2 1.4,-4.1 1.4,-6.3 C 29.9,10.7 28,6.6 24.8,3.8 22.2,1.3 18.7,0 15,0 11.3,0 7.8,1.3 5.1,3.7 1.9,6.6 0,10.7 0,15 c 0,4.3 1.9,8.4 5.1,11.2 2.7,2.5 6.2,3.8 9.9,3.8 2.2,0 4.3,-0.5 6.3,-1.4 z M 25.2,6.9 c 1.6,2 2.6,4.5 2.8,7.1 H 23 C 22.9,11.9 22.6,9.9 22.1,8.1 23.2,7.7 24.3,7.4 25.2,6.9 Z M 23.6,5.3 c 0,0 0.1,0.1 0.1,0.1 C 23,5.7 22.3,6 21.5,6.2 21,5 20.4,3.9 19.8,3 c 1.4,0.5 2.7,1.3 3.8,2.3 z M 16,2.2 c 1.3,0.5 2.6,2.1 3.5,4.4 C 18.4,6.8 17.2,6.9 16,7 Z M 16,9 c 1.4,0 2.8,-0.2 4.2,-0.5 0.4,1.6 0.7,3.4 0.8,5.5 H 16 Z M 6.4,5.2 C 7.5,4.2 8.8,3.4 10.2,2.9 9.5,3.8 9,4.9 8.5,6.1 7.7,5.9 7,5.7 6.3,5.4 6.3,5.3 6.4,5.3 6.4,5.2 Z M 4.8,6.9 C 5.7,7.3 6.7,7.7 7.8,8 7.4,9.9 7.1,11.9 7,14 H 2 C 2.3,11.4 3.2,8.9 4.8,6.9 Z m 0,16.2 C 3.2,21.1 2.2,18.6 2,16 h 5 c 0.1,2.1 0.4,4.1 0.9,5.9 -1.1,0.4 -2.2,0.7 -3.1,1.2 z m 1.6,1.6 c 0,0 -0.1,-0.1 -0.1,-0.1 C 7,24.3 7.7,24 8.5,23.8 9,25 9.6,26.1 10.2,27 8.8,26.5 7.5,25.7 6.4,24.7 Z M 14,27.8 C 12.7,27.3 11.4,25.7 10.5,23.4 11.6,23.2 12.8,23.1 14,23 Z M 14,21 C 12.6,21 11.2,21.2 9.8,21.5 9.4,19.9 9.1,18 9,16 h 5 z m 0,-7 H 9 C 9.1,12 9.4,10.1 9.8,8.5 11.1,8.8 12.5,8.9 14,9 Z M 14,7 C 12.8,7 11.6,6.8 10.5,6.6 11.4,4.3 12.7,2.7 14,2.2 Z" /><polygon
     transform="translate(-1,-1)"
     id="polygon835"
     points="30.9,24 19,19 24,30.9 25.1,26.5 29.6,31 31,29.6 26.5,25.1 " /></svg>
