<?xml version="1.0" standalone="no"?>
<!DOCTYPE svg PUBLIC "-//W3C//DTD SVG 20010904//EN"
 "http://www.w3.org/TR/2001/REC-SVG-20010904/DTD/svg10.dtd">
<svg version="1.0" xmlns="http://www.w3.org/2000/svg"
 width="512.000000pt" height="512.000000pt" viewBox="0 0 512.000000 512.000000"
 preserveAspectRatio="xMidYMid meet">
<metadata>
Created by potrace 1.11, written by Peter Selinger 2001-2013
</metadata>
<g transform="translate(0.000000,512.000000) scale(0.100000,-0.100000)"
fill="#000000" stroke="none">
<path d="M397 5104 c-99 -24 -167 -62 -243 -138 -77 -78 -114 -144 -139 -248
-22 -95 -22 -4221 0 -4316 25 -104 62 -170 139 -248 78 -77 144 -114 248 -139
95 -22 4221 -22 4316 0 104 25 170 62 248 139 77 78 114 144 139 248 22 95 22
4221 0 4316 -25 104 -62 170 -139 248 -78 77 -144 114 -248 139 -92 22 -4231
21 -4321 -1z m2023 -1145 c25 -6 68 -28 96 -49 45 -34 55 -48 74 -105 24 -72
21 -108 -11 -149 -23 -29 -76 -46 -239 -76 -63 -12 -149 -30 -190 -40 -41 -10
-112 -24 -157 -30 -65 -10 -83 -16 -83 -29 -2 -135 -24 -450 -40 -566 -11 -82
-20 -167 -20 -187 0 -21 -7 -57 -15 -80 -20 -61 -33 -270 -45 -738 -6 -223
-15 -429 -21 -458 -21 -103 -101 -160 -238 -169 -68 -5 -80 -3 -111 19 -46 30
-64 70 -92 198 -19 90 -22 130 -21 285 1 99 7 212 14 250 6 39 13 102 15 140
2 39 6 97 8 130 3 33 10 123 15 200 6 77 17 203 26 280 8 77 15 174 15 215 0
42 7 130 15 195 23 185 37 169 -112 129 -379 -101 -578 -112 -618 -34 -32 61
-14 178 36 235 45 51 105 81 261 132 79 25 211 70 293 100 197 70 333 103 480
113 78 5 152 18 211 35 186 54 364 75 454 54z m1158 -43 c23 -9 69 -17 103
-20 37 -3 81 -14 112 -30 29 -14 70 -32 92 -39 32 -11 49 -26 85 -80 25 -36
59 -81 76 -99 47 -50 91 -119 136 -215 57 -121 58 -177 6 -286 -58 -121 -123
-212 -241 -334 l-109 -112 39 -10 c37 -10 61 -16 193 -46 36 -9 76 -24 90 -36
14 -11 41 -27 60 -37 20 -9 68 -51 108 -93 57 -60 78 -91 98 -145 38 -99 39
-128 10 -240 -39 -148 -127 -320 -219 -425 -81 -93 -193 -194 -271 -244 -124
-80 -351 -208 -380 -215 -17 -4 -47 -15 -67 -24 -59 -25 -158 -36 -331 -37
-183 -2 -251 9 -348 53 -80 36 -127 80 -141 133 -7 26 -27 55 -56 83 -42 40
-45 47 -45 96 0 28 6 65 15 82 20 38 55 274 72 485 7 92 21 206 30 255 9 49
20 112 25 139 5 28 17 95 25 150 9 55 25 138 35 185 23 99 36 200 26 200 -4 0
-33 -13 -64 -29 l-58 -29 -36 21 c-20 12 -54 34 -76 49 l-39 27 -7 108 c-8
115 -4 140 27 162 33 24 190 164 242 216 27 27 74 69 104 92 29 23 60 51 67
61 12 17 115 72 319 168 33 15 80 41 105 57 39 25 52 28 96 23 28 -3 70 -12
92 -20z"/>
<path d="M3384 3435 l-71 -36 -21 -72 c-12 -40 -26 -115 -32 -168 -13 -119
-43 -308 -65 -412 -10 -43 -15 -80 -13 -82 3 -3 27 4 54 14 27 10 74 26 104
36 30 9 69 29 85 45 17 15 68 56 113 90 89 67 151 135 219 240 35 55 43 78 53
149 15 113 7 130 -84 184 -69 40 -74 41 -171 45 -98 3 -101 3 -171 -33z"/>
<path d="M3370 2392 c-97 -7 -121 -14 -178 -56 l-59 -43 -12 -74 c-27 -159
-36 -559 -14 -616 8 -20 120 -16 193 7 34 11 69 20 76 20 8 0 14 7 14 15 0 16
49 45 77 45 10 0 52 17 93 37 57 29 97 60 167 130 50 51 109 101 130 112 36
18 63 56 78 108 3 13 22 48 40 79 65 108 60 154 -22 190 -99 44 -163 53 -363
51 -102 -1 -201 -3 -220 -5z"/>
</g>
</svg>
