<svg version="1" xmlns="http://www.w3.org/2000/svg" width="682.667" height="682.667" viewBox="0 0 512.000000 512.000000"><path d="M38.6 1.6C21 5.9 5.7 21.2 1.5 39.1.2 44.7 0 71.8 0 256c0 231.6-.4 216.9 6.1 229.1 4 7.4 13.4 16.8 20.8 20.8 12.2 6.5-2.5 6.1 229.1 6.1s216.9.4 229.1-6.1c7.4-4 16.8-13.4 20.8-20.8 6.5-12.2 6.1 2.5 6.1-229.1 0-184.2-.2-211.3-1.5-216.9C506.2 21 491 5.8 472.9 1.5 463.5-.7 47.8-.6 38.6 1.6zm207.6 116.2c10.3 4.5 17.1 19.1 12.8 27.2-1.6 3-8.5 6.1-15.9 7.1-3.6.5-13.6 2.4-22.1 4.3-8.5 1.9-18.8 4-22.7 4.6-4 .7-7.3 1.5-7.3 1.8-.1.4-.5 9.2-1 19.7-1 21.9-4.4 54-6.6 63.5-2.2 9.2-3.4 27.2-4.4 64.9-1.5 55.7-1.5 55.2-3.4 59.9-3.3 7.8-10.4 11.9-22.1 12.9-13.5 1.1-17.1-3.1-20.9-24.7-2.4-13.7-2.7-20.7-1.7-35 1.2-17 1.8-21.7 3-23.7.5-.9.5-2.9.1-4.4-.5-1.5-.6-2.9-.4-3.2.2-.2.6-3.9.9-8.3.3-4.3 1-14 1.5-21.4.5-7.4 1.2-15.8 1.6-18.5.4-2.8.9-6.4 1-8 .1-1.7.6-11.6 1.3-22 .6-10.5 1.5-21.7 2.1-25 1.4-8.6 1.3-13.8-.3-13.2-3.8 1.4-25.8 6.9-36.8 9.1-19.6 4-31.6 3.3-35.9-2.1-2.5-3.1-2.7-9.7-.5-17 2.7-9 9.3-13.2 32-20.6 7.7-2.5 20.5-6.9 28.5-9.7 19.3-6.8 33-10 47.5-11 7-.5 14.7-1.7 18.5-2.9 3.6-1.1 12.4-3.2 19.5-4.5 15-2.9 24.8-2.9 31.7.2zm111.3 3c2.7.8 7.7 1.7 11 1.9 3.8.2 7.8 1.2 11 2.8 2.7 1.4 6.8 3.1 9 3.8 3 1 4.8 2.5 7.2 6.3 1.7 2.7 5 7 7.2 9.5 10.3 11.6 19.3 29.7 19.4 38.9.1 10.8-11.1 29.6-28 47.1-5.7 5.9-10 10.9-9.6 11.2.4.3 6 1.7 12.3 3.1 16.6 3.7 18.9 4.5 20 6.6.5 1 2.7 2.4 4.7 3.2 5.9 2 17.5 14.9 20.2 22.3 1.1 3.3 2.6 6.8 3.1 7.7 3.7 6.4-5.3 33.7-16.8 51.3-4.5 6.9-23.4 25.9-30.7 30.8-10.6 7.2-37.2 22.4-41 23.5-2.2.6-6.7 2.1-10 3.3-5.6 2.1-7.7 2.3-29 2.3-21.4.1-23.4-.1-29.6-2.2-11.7-4-19.9-10.8-19.9-16.5 0-1-2.2-4.2-5-7.1-4.6-4.9-5-5.7-5-10.2 0-2.7.7-6.2 1.5-7.7 1.8-3.6 6-32.3 7.4-51.4.6-7.8 1.7-17.5 2.5-21.5 1.5-8.1 2.6-14.3 5.1-29.3.9-5.5 2.5-13.9 3.6-18.7 1.1-4.9 2.2-11.5 2.6-14.8.7-7 .1-7.3-6.2-3.5-2.2 1.4-4.9 2.5-5.9 2.5-1.1 0-5-2-8.6-4.5l-6.7-4.4-.6-9.8c-.3-5.4-.3-11 0-12.4.3-1.7 3.8-5.5 10.1-11 5.3-4.6 13-11.7 17.2-15.7 4.2-4 9-8.1 10.7-9.2 1.7-1 4.2-3.3 5.4-4.9 1.2-1.7 3.2-3.4 4.3-3.7 1.2-.4 3.1-1.3 4.3-2.1 1.2-.8 8.4-4.4 16-7.9 7.5-3.5 15.4-7.5 17.3-8.8 5.8-3.8 9.6-4 19.5-.8z"/><path d="M338 168.4c-9.1 4.7-9.5 5.9-14 40.9-1.1 8.7-3 19.5-4 24-1.1 4.5-2 9.4-2 10.9v2.7l5.3-2.4c2.8-1.4 6.1-2.5 7.2-2.6 3.4-.1 8.7-3.1 17.5-9.9 11.6-8.9 20.6-18.1 26.3-26.8 6-9.1 6.3-10 7.2-19.8.6-7.6.5-8.2-1.7-10.7-1.2-1.4-5.4-4.2-9.1-6.1-6.5-3.4-7.4-3.6-16.5-3.6s-10.1.2-16.2 3.4zM332 273c-4.3.4-7.1 1.5-12.2 4.8l-6.5 4.2-1.2 6.8c-1.7 9.8-3.5 47.5-2.7 56.4.7 6.6 1 7.7 2.9 8.2 3.1.8 13.8-.5 16.9-2 1.5-.8 4-1.4 5.6-1.4 2 0 3.5-.9 5-3 1.5-1.9 3.5-3.1 5.9-3.6 8.4-1.6 21.7-10.2 29.4-19 2.4-2.8 6.9-6.7 10.1-8.7 4.8-3.1 5.9-4.4 7.7-9.1 1.1-3.1 3.1-7.3 4.4-9.3 2.9-4.7 4.7-9.7 4.7-13.4 0-3.4-2.3-5.1-11.8-8.7-6.5-2.5-7.5-2.6-29.7-2.7-12.6 0-25.5.2-28.5.5z"/></svg>