<?xml version="1.0" encoding="UTF-8" standalone="no"?>
<svg
   xmlns:dc="http://purl.org/dc/elements/1.1/"
   xmlns:cc="http://creativecommons.org/ns#"
   xmlns:rdf="http://www.w3.org/1999/02/22-rdf-syntax-ns#"
   xmlns:svg="http://www.w3.org/2000/svg"
   xmlns="http://www.w3.org/2000/svg"
   id="svg8"
   version="1.1"
   viewBox="0 0 158.74678 19.711458"
   height="19.711458mm"
   width="158.74678mm">
  <defs
     id="defs2" />
  <metadata
     id="metadata5">
    <rdf:RDF>
      <cc:Work
         rdf:about="">
        <dc:format>image/svg+xml</dc:format>
        <dc:type
           rdf:resource="http://purl.org/dc/dcmitype/StillImage" />
        <dc:title></dc:title>
      </cc:Work>
    </rdf:RDF>
  </metadata>
  <g
     transform="translate(-20.412326,-143.6026)"
     id="layer1">
    <g
       transform="matrix(0.26458333,0,0,0.26458333,14.958688,68.169897)"
       id="g876">
      <path
         class="st0"
         d="m 21.7,303.5 c -1.4,0.3 -1.5,2 0,2 2.2,-0.1 12.6,-0.4 21.9,0.5 10.8,1 21.1,3.8 29.2,6.5 8,2.7 25.8,12.8 25.8,12.8 0,0 -23,13 -30.8,32.4 -0.4,1 0.1,1.4 1.5,0.6 29.4,-17.5 49.9,-28.2 85.7,-35.2 2.3,-0.5 2,-0.7 0.1,-1.2 -2,-0.5 -8.8,-1.7 -26.5,-8.3 C 110.9,307 93.9,300.9 74,299.4 c -2.9,-0.2 -5.9,-0.3 -9,-0.3 -20.7,-0.1 -42.7,4.3 -43.3,4.4"
         id="path835" />
      <path
         class="st0"
         d="m 164.1,286.7 c -5.6,6.7 -17.3,15.2 -28.5,19.6 -1.5,0.6 -1.1,1.5 -0.5,1.9 0.2,0.1 1,0.4 2.1,0.8 l 14.7,4.7 c 1.2,0.4 1.2,0.3 1.7,-0.2 7.8,-7.8 10.8,-19.1 11.3,-26.6 0,0 0.1,-0.9 -0.1,-0.9 -0.1,0.1 -0.3,0.3 -0.7,0.7"
         id="path837" />
      <path
         class="st1"
         d="m 429.5,358.7 h -9.4 c -0.6,0 -1.1,-0.3 -1.4,-0.8 L 390.4,309.3 V 357 c 0,0.9 -0.8,1.7 -1.7,1.7 h -9.4 c -0.9,0 -1.7,-0.8 -1.7,-1.7 v -69.1 c 0,-0.9 0.8,-1.7 1.7,-1.7 h 9.4 c 0.6,0 1.1,0.3 1.4,0.8 l 28.4,46.6 v -45.7 c 0,-0.9 0.8,-1.7 1.7,-1.7 h 9.3 c 0.9,0 1.7,0.8 1.7,1.7 V 357 c 0.1,0.9 -0.7,1.7 -1.7,1.7"
         id="path839" />
      <path
         class="st1"
         d="m 528.9,358.7 h -9.4 c -0.9,0 -1.7,-0.8 -1.7,-1.7 v -69.1 c 0,-0.9 0.8,-1.7 1.7,-1.7 h 9.4 c 0.9,0 1.7,0.8 1.7,1.7 V 357 c 0,0.9 -0.7,1.7 -1.7,1.7"
         id="path841" />
      <path
         class="st1"
         d="m 475.3,359.6 c -8.9,0 -16.1,-3.2 -21.5,-9.4 -5.3,-6.2 -8,-16.5 -8,-26.6 V 321 c 0,-6.7 1.2,-14.6 3.7,-19.7 2.5,-5.2 6.1,-9.2 10.7,-12 4.6,-2.8 9.9,-4.2 15.9,-4.2 8,0 14.5,2.2 19.3,6.6 3.9,3.5 6.6,8.3 7.8,14.1 0.1,0.5 0,1 -0.3,1.4 -0.3,0.4 -0.8,0.6 -1.3,0.6 H 492 c -0.8,0 -1.5,-0.5 -1.7,-1.3 -0.9,-3.2 -2.2,-5.7 -4,-7.3 -2.4,-2.2 -5.8,-3.3 -10.3,-3.3 -5.5,0 -9.7,1.9 -12.7,5.8 -3.1,4 -4.7,11.8 -4.7,19.3 v 2.7 c 0,7.1 1.5,14.8 4.5,18.9 2.9,4 6.9,5.9 12.1,5.9 4.8,0 8.4,-1 10.9,-3 1.9,-1.5 3.3,-4.1 4.2,-7.5 0.2,-0.8 0.9,-1.3 1.6,-1.3 h 9.6 c 0.5,0 1,0.2 1.3,0.7 0.3,0.4 0.4,0.9 0.3,1.4 -1.4,6 -4.1,10.8 -8.3,14.3 -4.7,4.4 -11.4,6.5 -19.5,6.5"
         id="path843" />
      <path
         class="st1"
         d="m 231,358.7 h -35.4 c -0.9,0 -1.7,-0.8 -1.7,-1.7 v -69.1 c 0,-0.9 0.8,-1.7 1.7,-1.7 H 231 c 0.9,0 1.7,0.8 1.7,1.7 v 7.5 c 0,0.9 -0.8,1.7 -1.7,1.7 h -24.3 v 18.8 H 231 c 0.9,0 1.7,0.8 1.7,1.7 v 7.5 c 0,0.9 -0.8,1.7 -1.7,1.7 h -24.3 v 21.1 H 231 c 0.9,0 1.7,0.8 1.7,1.7 v 7.5 c 0,0.8 -0.7,1.6 -1.7,1.6"
         id="path845" />
      <path
         class="st1"
         d="m 357.2,358.7 h -35.4 c -0.9,0 -1.7,-0.8 -1.7,-1.7 v -69.1 c 0,-0.9 0.8,-1.7 1.7,-1.7 h 35.4 c 0.9,0 1.7,0.8 1.7,1.7 v 7.5 c 0,0.9 -0.8,1.7 -1.7,1.7 h -24.3 v 18.8 h 24.3 c 0.9,0 1.7,0.8 1.7,1.7 v 7.5 c 0,0.9 -0.8,1.7 -1.7,1.7 h -24.3 v 21.1 h 24.3 c 0.9,0 1.7,0.8 1.7,1.7 v 7.5 c 0.1,0.8 -0.7,1.6 -1.7,1.6"
         id="path847" />
      <path
         class="st1"
         d="m 563.5,340 -1.7,0.8 0.5,-1.3 2.7,-7.5 10.1,-28 10.8,29.8 c -8.3,1.6 -14.8,3.3 -22.4,6.2 m 43.5,16.3 -26.4,-69.1 c -0.2,-0.7 -0.9,-1.1 -1.5,-1.1 h -8 c -0.7,0 -1.3,0.4 -1.6,1.1 l -26.3,69.1 c -0.2,0.5 -0.1,1.1 0.2,1.6 0.3,0.5 0.8,0.8 1.4,0.8 h 9.4 c 1,0 1.8,0 1.8,0 10.9,-12 27.6,-17.9 32,-19.3 l 6.6,18.1 c 0.2,0.7 0.9,1.1 1.6,1.1 h 9.3 c 0.6,0 1.1,-0.3 1.4,-0.8 0.3,-0.3 0.3,-0.9 0.1,-1.5"
         id="path849" />
      <path
         class="st1"
         d="m 276.6,359.6 c -6,0 -11.4,-1.4 -16.1,-4.2 -4.7,-2.8 -8.4,-6.8 -11,-12 -2.5,-5.1 -3.9,-11 -3.9,-17.7 v -6 c 0,-10.8 2.6,-19.3 7.8,-25.3 5.2,-6.1 12.7,-9.2 22.1,-9.2 7.7,0 14,2 18.8,5.9 3.4,2.8 5.9,6.6 7.5,11.1 0.2,0.5 0.1,1.1 -0.2,1.5 -0.3,0.5 -0.8,0.7 -1.4,0.7 h -9.7 c -0.7,0 -1.2,-0.4 -1.5,-1 -2.4,-5 -6.7,-7.5 -13.4,-7.5 -5.7,0 -9.9,1.9 -12.8,5.8 -3,4 -4.5,9.9 -4.5,17.6 v 5.6 c 0,7.3 1.7,13.2 5,17.4 3.3,4.2 7.6,6.2 13.3,6.2 3.3,0 6.2,-0.4 8.6,-1.1 2.1,-0.6 3.8,-1.6 5.2,-2.9 v -18 H 279 c -0.9,0 -1.7,-0.8 -1.7,-1.7 v -7.5 c 0,-0.9 0.8,-1.7 1.7,-1.7 h 24.1 v 32 c 0,0.4 -0.1,0.7 -0.3,1 -2.6,3.6 -6.2,6.3 -10.7,8.1 -4.5,2.1 -9.7,2.9 -15.5,2.9"
         id="path851" />
      <path
         class="st1"
         d="m 618.7,295.6 c -0.5,0.9 -1.1,1.5 -2,2 -0.9,0.5 -1.8,0.8 -2.8,0.8 -1,0 -1.9,-0.3 -2.8,-0.7 -0.8,-0.5 -1.5,-1.2 -2,-2 -0.5,-0.9 -0.7,-1.8 -0.7,-2.8 0,-1 0.2,-1.9 0.7,-2.8 0.5,-0.9 1.2,-1.5 2,-2 0.9,-0.5 1.8,-0.7 2.8,-0.7 1,0 2,0.3 2.8,0.8 0.9,0.5 1.5,1.2 2,2 0.5,0.8 0.7,1.8 0.7,2.8 0.1,0.8 -0.2,1.7 -0.7,2.6 m 1,-6.1 c -0.6,-1 -1.4,-1.8 -2.4,-2.4 -1,-0.6 -2.2,-0.9 -3.4,-0.9 -1.2,0 -2.3,0.3 -3.4,0.9 -1.1,0.6 -1.9,1.4 -2.5,2.4 -0.6,1 -0.9,2.1 -0.9,3.4 0,1.3 0.3,2.3 0.9,3.4 0.6,1 1.4,1.8 2.5,2.4 1,0.6 2.2,0.9 3.4,0.9 1.2,0 2.4,-0.3 3.4,-0.9 1,-0.6 1.9,-1.4 2.4,-2.4 0.6,-1 0.9,-2.1 0.9,-3.3 0,-1.4 -0.3,-2.5 -0.9,-3.5"
         id="path853" />
      <path
         class="st1"
         d="m 614.8,292.1 c -0.2,0.1 -0.5,0.2 -0.8,0.2 h -1 v -1.8 h 1 c 0.4,0 0.8,0.1 0.9,0.2 0.2,0.1 0.3,0.4 0.3,0.7 -0.1,0.4 -0.2,0.6 -0.4,0.7 m 1.4,3.1 c 0,-0.2 0,-0.4 0,-0.8 0,-0.4 -0.1,-0.7 -0.2,-1 -0.1,-0.3 -0.3,-0.5 -0.6,-0.6 0.6,-0.3 0.9,-0.7 0.9,-1.3 0,-0.6 -0.2,-1.1 -0.6,-1.4 -0.4,-0.3 -1,-0.5 -1.7,-0.5 h -2 v 6.1 h 1.1 v -2.4 h 1.1 c 0.4,0 0.6,0.1 0.8,0.2 0.2,0.2 0.2,0.4 0.2,0.8 0,0.8 0,1.2 0.1,1.4 h 1.1 v -0.1 c -0.1,-0.1 -0.2,-0.2 -0.2,-0.4"
         id="path855" />
    </g>
  </g>
  <style
     type="text/css"
     id="style833">
	.st0{fill:#FFCC06;}
	.st1{fill:#152936;}
</style>
</svg>
