<svg width="100" height="100" xmlns="http://www.w3.org/2000/svg" viewBox="0 0 24 24" id="Matter-Icon--Streamline-Svg-Logos">
  <desc>
    Matter Icon Streamline Icon: https://streamlinehq.com
  </desc>
  <path fill="#231f20" d="M7.228375 6.41685c0.98855 0.80195 2.16365 1.3412 3.416275 1.56765V1.30093l1.3612 -0.7854275 1.360125 0.7854275V7.9845c1.252875 -0.226675 2.4283 -0.765875 3.41735 -1.56765l2.471225 1.4293c-4.019075 3.976275 -10.490025 3.976275 -14.5091 0l2.482925 -1.4293Zm3.00335 17.067575c1.43325 -5.47035 -1.8052 -11.074775 -7.2604 -12.564675v2.859675c1.189125 0.455 2.244125 1.202875 3.0672 2.174275L0.25 19.2955v1.5719l1.3611925 0.781175L7.39865 18.3068c0.430175 1.19825 0.550625 2.48575 0.35015 3.743l2.482925 1.434625ZM21.034 10.91975c-5.452225 1.4932 -8.6871 7.09635 -7.254025 12.564675l2.47655 -1.43035c-0.200025 -1.257275 -0.079575 -2.544675 0.35015 -3.743025l5.7832 3.337525L23.75 20.86315V19.2955L17.961475 15.9537c0.8233 -0.97115 1.878225 -1.718975 3.0672 -2.174275l0.005325 -2.859675Z" stroke-width="0.25"></path>
</svg>