<svg width="80" height="80" version="1.1" viewBox="78.00 1.69 202.95 203.87" xmlns="http://www.w3.org/2000/svg" xmlns:cc="http://creativecommons.org/ns#" xmlns:dc="http://purl.org/dc/elements/1.1/" xmlns:rdf="http://www.w3.org/1999/02/22-rdf-syntax-ns#">
	<title>
		OpenZFS logo
	</title>
	<metadata>
		<rdf:RDF>
			<cc:Work>
				<dc:format>
					image/svg+xml
				</dc:format>
				<dc:type rdf:resource="http://purl.org/dc/dcmitype/StillImage" />
				<dc:title />
			</cc:Work>
		</rdf:RDF>
	</metadata>
	<g transform="matrix(0.989 0 0 0.993 546 -255)">
		<path d="m-308 288c-2.12 2.13-5.56 2.13-7.68 0-2.12-2.12-2.12-5.57 0-7.69 2.12-2.13 5.56-2.13 7.68 0 2.13 2.12 2.13 5.57-.002 7.69m-1.19 152c-3.71 3.71-9.72 3.71-13.4 0-3.71-3.71-3.71-9.72 0-13.4 3.71-3.71 9.73-3.71 13.4 0 3.71 3.71 3.71 9.72 0 13.4m-31.7-18.3c-3.71-3.71-3.71-9.73 0-13.4 3.71-3.71 9.73-3.71 13.4 0 3.72 3.71 3.71 9.73.002 13.4-3.71 3.71-9.73 3.71-13.4 0m-4.87 18.3c-3.71 3.71-9.73 3.71-13.4 0-3.72-3.71-3.72-9.72 0-13.4 3.71-3.71 9.72-3.71 13.4 0 3.71 3.71 3.71 9.72 0 13.4m-31.7-18.3c-3.71-3.71-3.71-9.73 0-13.4 3.71-3.71 9.73-3.71 13.4.002 3.71 3.71 3.71 9.73 0 13.4-3.71 3.71-9.73 3.71-13.4 0m-4.87 18.3c-3.71 3.71-9.73 3.71-13.4-.004-3.71-3.72-3.71-9.72 0-13.4 3.71-3.71 9.73-3.71 13.4 0 3.71 3.71 3.72 9.72-.001 13.4m-31.7-18.3c-3.71-3.71-3.71-9.72-.001-13.4 3.72-3.71 9.73-3.71 13.4 0 3.71 3.71 3.71 9.73 0 13.4-3.7 3.7-9.72 3.71-13.4-.007m-4.87 18.3c-3.71 3.71-9.73 3.71-13.4 0-3.71-3.72-3.71-9.73 0-13.4 3.71-3.71 9.72-3.71 13.4 0 3.71 3.71 3.71 9.73 0 13.4m-14.6-159c2.13-2.13 5.56-2.13 7.69 0 2.12 2.12 2.12 5.57 0 7.69-2.13 2.13-5.57 2.13-7.69 0-2.12-2.12-2.13-5.57-.002-7.69m11.8 11.8c2.12-2.12 5.56-2.12 7.69.002 2.12 2.13 2.12 5.57 0 7.7-2.13 2.12-5.57 2.12-7.69 0-2.12-2.13-2.13-5.57.002-7.7m11.8 11.8c2.12-2.13 5.57-2.13 7.69 0 2.13 2.12 2.12 5.57-.001 7.69-2.12 2.13-5.56 2.13-7.68 0-2.13-2.12-2.13-5.57-.005-7.69m.005-23.6c2.12-2.13 5.56-2.13 7.68.002 2.13 2.12 2.12 5.57 0 7.69-2.12 2.13-5.56 2.12-7.68 0-2.13-2.12-2.13-5.57 0-7.69m11.8 35.4c2.13-2.12 5.57-2.13 7.69.002 2.13 2.12 2.13 5.57 0 7.7-2.12 2.12-5.56 2.12-7.69 0-2.12-2.13-2.12-5.58 0-7.7m.005-23.6c2.12-2.12 5.56-2.12 7.68.002 2.12 2.13 2.13 5.57 0 7.7-2.12 2.12-5.56 2.12-7.69 0-2.12-2.13-2.12-5.58.005-7.7m11.8-11.8c2.12-2.13 5.56-2.13 7.69 0 2.12 2.12 2.12 5.57 0 7.69-2.13 2.13-5.57 2.12-7.69 0-2.12-2.12-2.12-5.57 0-7.69m11.8 35.4c2.12-2.13 5.56-2.12 7.69-.002 2.12 2.13 2.12 5.58 0 7.7-2.12 2.12-5.56 2.12-7.69 0-2.12-2.13-2.13-5.57 0-7.7m0-23.6c2.12-2.12 5.56-2.12 7.69 0s2.12 5.57-.002 7.7c-2.12 2.12-5.57 2.12-7.69 0-2.12-2.13-2.12-5.58 0-7.7m11.8-11.8c2.13-2.13 5.57-2.13 7.69 0 2.12 2.12 2.12 5.57.002 7.69-2.12 2.12-5.56 2.13-7.69 0-2.12-2.12-2.12-5.57 0-7.69m3.64 109c3.71-3.71 9.73-3.71 13.4 0 3.71 3.71 3.71 9.73 0 13.4-3.71 3.71-9.73 3.71-13.4 0-3.72-3.71-3.72-9.73 0-13.4m4.05-54.4c-2.12 2.13-5.56 2.12-7.69 0-2.12-2.13-2.12-5.57-.002-7.7 2.12-2.12 5.57-2.12 7.69.01 2.12 2.12 2.12 5.57 0 7.69m0-23.6c-2.12 2.13-5.56 2.13-7.69.003-2.12-2.12-2.12-5.57 0-7.69 2.12-2.13 5.57-2.13 7.69 0 2.12 2.12 2.12 5.57.002 7.69m-19.5 27.7c2.12-2.12 5.56-2.12 7.69 0 2.12 2.12 2.12 5.58-.001 7.7-2.12 2.12-5.56 2.12-7.69-.001-2.12-2.13-2.12-5.57.007-7.7m-2.88 32c3.71-3.71 9.73-3.71 13.4.002 3.71 3.71 3.71 9.72 0 13.4-3.71 3.71-9.73 3.71-13.4.002-3.71-3.71-3.71-9.72 0-13.4m-4.87 18.3c3.71 3.71 3.71 9.73 0 13.4-3.71 3.71-9.73 3.71-13.4-.002-3.72-3.71-3.71-9.72 0-13.4 3.7-3.71 9.73-3.71 13.4 0m-4.05-85.7c2.12-2.13 5.56-2.13 7.69 0 2.12 2.12 2.12 5.57 0 7.69-2.13 2.13-5.56 2.13-7.69.003-2.12-2.12-2.12-5.57-.001-7.69m0 23.6c2.12-2.13 5.56-2.13 7.69-.007 2.12 2.13 2.12 5.58 0 7.71-2.13 2.12-5.57 2.13-7.69-.007-2.12-2.13-2.12-5.57 0-7.69m35.4-11.8c2.12-2.12 5.56-2.13 7.69 0 2.12 2.13 2.12 5.58-.002 7.7-2.12 2.12-5.56 2.12-7.69.001-2.12-2.13-2.12-5.58 0-7.7m0-23.6c2.12-2.12 5.56-2.12 7.69 0 2.12 2.13 2.12 5.57 0 7.7-2.12 2.12-5.56 2.12-7.69-.006-2.12-2.12-2.12-5.57 0-7.7m11.8 11.8c2.13-2.13 5.58-2.13 7.69 0 2.12 2.12 2.12 5.57 0 7.69-2.12 2.13-5.56 2.13-7.69 0-2.12-2.12-2.12-5.57 0-7.69m.002-23.6c2.12-2.13 5.57-2.13 7.69 0 2.12 2.12 2.12 5.56 0 7.69-2.12 2.13-5.56 2.13-7.69 0-2.12-2.12-2.12-5.57 0-7.69m11.8 11.8c2.12-2.12 5.57-2.12 7.69 0 2.12 2.13 2.12 5.57 0 7.7-2.12 2.13-5.57 2.13-7.69 0-2.12-2.12-2.12-5.56 0-7.7m58.8-17.9c0-8.58-6.96-15.6-15.6-15.6h-173c-8.59 0-15.6 6.96-15.6 15.6v59.4h23.2l-23.2 54.3v59.4c0 8.59 6.96 15.6 15.6 15.6h173c8.59 0 15.6-6.96 15.6-15.6v-59.4h-23.2l23.2-54.3z" fill="#2a667f" />
	</g>
</svg>
